<?xml version="1.0" encoding="UTF-8"?>
<mxfile host="app.diagrams.net" modified="2025-06-14T17:36:52.000Z" agent="MCP Draw Architecture Server" version="24.7.17">
  <diagram name="Twitter技术架构图" id="e98615cf-c99f-4fdf-87f2-3b8e3b5bac25">
    <mxGraphModel dx="1422" dy="794" grid="1" gridSize="10" guides="1" tooltips="1" connect="1" arrows="1" fold="1" page="1" pageScale="1" pageWidth="1169" pageHeight="827" math="0" shadow="0">
      <root>
        <mxCell id="0" />
        <mxCell id="1" parent="0" />
        
        <!-- 架构图内容将在这里生成 -->
        
        <!-- 标题 -->
        <mxCell id="title" value="Twitter技术架构图" style="text;html=1;strokeColor=none;fillColor=none;align=center;verticalAlign=middle;whiteSpace=wrap;rounded=0;fontSize=16;fontStyle=1;" vertex="1" parent="1">
          <mxGeometry x="400" y="50" width="200" height="30" as="geometry" />
        </mxCell>
        
        <!-- 客户端层 -->
        <mxCell id="client-layer" value="客户端层" style="rounded=1;whiteSpace=wrap;html=1;fillColor=#e1d5e7;strokeColor=#9673a6;fontSize=14;fontStyle=1;" vertex="1" parent="1">
          <mxGeometry x="100" y="120" width="800" height="60" as="geometry" />
        </mxCell>
        
        <!-- 接入层 -->
        <mxCell id="gateway-layer" value="接入层" style="rounded=1;whiteSpace=wrap;html=1;fillColor=#d5e8d4;strokeColor=#82b366;fontSize=14;fontStyle=1;" vertex="1" parent="1">
          <mxGeometry x="100" y="220" width="800" height="60" as="geometry" />
        </mxCell>
        
        <!-- 业务层 -->
        <mxCell id="business-layer" value="业务层" style="rounded=1;whiteSpace=wrap;html=1;fillColor=#fff2cc;strokeColor=#d6b656;fontSize=14;fontStyle=1;" vertex="1" parent="1">
          <mxGeometry x="100" y="320" width="800" height="60" as="geometry" />
        </mxCell>
        
        <!-- 数据层 -->
        <mxCell id="data-layer" value="数据层" style="rounded=1;whiteSpace=wrap;html=1;fillColor=#f8cecc;strokeColor=#b85450;fontSize=14;fontStyle=1;" vertex="1" parent="1">
          <mxGeometry x="100" y="420" width="800" height="60" as="geometry" />
        </mxCell>
    
        
      </root>
    </mxGraphModel>
  </diagram>
</mxfile>